<?xml version="1.0" encoding="UTF-8"?><svg xmlns="http://www.w3.org/2000/svg" xmlns:xlink="http://www.w3.org/1999/xlink" height="503.4" preserveAspectRatio="xMidYMid meet" version="1.0" viewBox="161.8 -4.5 185.6 503.4" width="185.6" zoomAndPan="magnify"><g><g id="change1_1"><path d="M196,334c4.5,0.7,8.6,3,12.7,5c30.8,14.9,69.6,11.9,97.7-7.6c3.3-2.3,6.7-4.9,10.7-4.8 c5.5,0.1,9.7,5.5,10.7,11c1,5.4-0.3,11-1,16.5c-1.6,13.4,0.7,26.9,1.1,40.4c0.4,13.5-1.5,27.9-10.2,38.2 c-8.3,9.9-21.3,14.4-34,16.5c-15.9,2.7-29.9-15.3-44.1-7.5c-9.6,5.3-16.3,13.2-27.6,6.8c-4.3-2.5-13.4-14.1-16.1-18.4 c-17.5-27.3-31.6-67.3-12.4-93.4C185.5,333.9,191.5,333.4,196,334z M183.1,11.6c9.8-2.2,16.8-2.2,26.2-1.8 c19.7,0.9,29.1,11.7,30.3,36.8c1,22.1,0.1,46.9-0.2,69.6c-0.4,28.5-0.4,55.5,5.2,83.4c2.7,13.6,12.8,30.7,20,39.1 c6.4,7.4,13.6,7,15.5,19.5c0.6,3.9-0.4,7.8-1.8,11.5c-3.4,9-10,17.1-18.9,20.7c-6.7,2.7-14.2,3.1-21.7,3.1c-9.5,0-18,7.2-19.6,16.6 c-2.9,17.1,9.8,24.5,14.6,29.4c4.8,0,13.1,0.3,19.3,0.3c-5.1-3.4-11.4-8.3-16.7-13.6c-4.3-4.3-5.8-12.4-2.1-17.3 c1.1-1.4,2.5-2.5,4.1-3c3.2-0.8,6.4,0.9,9.2,2.5c7.4,4.2,15.1,8.4,23.6,9.5c8,1,16.2-0.9,23.4-4.6c7.1-3.8,13.2-9.3,18.2-15.7 c2.7-3.4,5.1-7,7-10.9c4.5-8.9,6.5-18.9,5.9-28.8c-0.3-4.4-1.2-9-3.9-12.5c-4.3-5.5-11.9-7-18.8-8.1c-9.1-1.5-20.1-0.2-26.6-6.7 c-8.4-8.4-26.4-19.2-26.4-101.8c0-31.8,2.7-57.3-0.4-94.2c-0.8-9.3-3-17-10.1-23.1c-7.7-6.6-30.3-16-58-7.9 C181,5.8,182.4,9.7,183.1,11.6z" fill="#C94F52"/></g><g id="change2_1"><path d="M207.3,410.6c2.1-1.9,4.3-3.8,7-4.6c2.7-0.8,6-0.4,7.9,1.7c0.7,0.8,1.3,1.8,1.6,2.8c1.4,4,0.6,8.5-0.7,12.6 s-2.9,8.2-3.1,12.4c2.2-2.8,2.9-6.6,3.9-10s2.9-7.1,6.3-8.3c2.7-0.9,5.7-0.1,8,1.6c2.3,1.7,4,4.1,5.4,6.5 c-1.2-3.4-1.4-7.1-0.6-10.5c0.6-2.5,1.9-5.1,4.3-6.1c2.3-0.9,5.1,0.1,6.9,1.8s2.8,4.1,3.6,6.5s1.5,4.8,2.8,6.9 c2.3,3.7,6.2,6.1,9.7,8.8c1.8,1.4,3.7,3.5,2.8,5.6c-0.5,1.3-2,2-3.4,2.2c-2.5,0.3-5.1-0.5-7.3-1.9c-2.2-1.4-3.9-3.3-5.5-5.3 c-2.5-3.2-4.7-6.7-6-10.5c-0.1,4.1,2.6,8.5,0.8,12.2c-1.2,2.4-4.1,3.7-6.8,3.4c-2.7-0.3-5.1-1.9-6.9-3.9c-1.8-2-3.1-4.4-4.3-6.8 c-0.5,4.9-1.7,10-4.9,13.7c-3.2,3.7-8.9,5.7-13.3,3.4c-3.1-1.6-5-5-5.5-8.5s0.3-7,1.4-10.3c1-2.8,2.2-5.6,2.4-8.6 c-2.7,2.4-4.9,5.2-7.8,7.4c-4,3-9.3-0.4-4.6-7.8C203.3,414.5,205.2,412.5,207.3,410.6z M278.9,400.6c-6.3-0.9-12.5,3.6-15.1,8.6 c-2.6,5-2.4,11.4,0.6,16.2c4.4,7,14,9.7,22,7.5c4-1.1,7.9-3.4,10.1-6.9c2.3-3.5,2.7-8.3,0.3-11.8c-1.9-2.8-5.1-4.3-7-7.1 c5.3,2.9,11.6,4.5,17.6,3.2c5.9-1.3,11.4-5.8,12.6-11.7c0.4-2,0.2-4.4-1.5-5.6c-1.4-0.9-3.2-0.6-4.8-0.7c-3-0.1-5.9-1.3-8-3.3 c4.7,0.5,10-1.7,11.8-6.1c0.8-1.8,0.9-3.8,0.8-5.7c-0.1-2.7-0.6-5.5-2.2-7.7c-2.9-4.1-8.8-5.3-13.7-3.9c-4.9,1.4-8.9,4.7-12.7,8.1 c-3.8,3.4-7.5,7-12.1,9.1c-2.3,1-4.9,1.7-7.2,0.9c-3-1-4.9-4-7.4-6c-3.3-2.7-8.2-3.4-12.1-1.7s-6.8,5.7-6.8,10 c-0.1,4.7,2.9,8.9,6.2,12.2c-10.3,0.5-19.9,8.5-22.1,18.6c2.7-1.5,6.2-1.7,9.1-0.5c2.2-5,7.5-8.6,13-8.8c2.3-0.1,4.6,0.4,6.8,0.2 c2.6-0.2,5.2-1.2,7.2-2.8c1.6-1.3,3-3.2,2.5-5.2c-0.7-2.6-3.8-3.3-6.1-4.6c-2.9-1.6-4.9-4.6-5.3-7.8c1,2.8,3.6,4.8,6.3,6 c9.2,4.3,21,2.4,28.4-4.6c2.5-2.4,4.5-5.2,7.2-7.5c2.6-2.2,6.1-3.9,9.5-3.1c-5.7-0.2-11.1,4.8-11.2,10.5 c-0.1,5.7,5.2,10.9,10.9,10.8c-7.1,1.7-14.2-5.2-21.2-3.2c-4.6,1.4-7.4,6.6-6.6,11.4c0.7,4.7,4.5,8.7,8.9,10.5 c-2.2,1.3-4.6,2.2-7.1,2c-2.5-0.2-5-2-5.4-4.4c-0.5-2.5,1.1-4.8,2.6-6.9C277.2,406.1,277.3,403.5,278.9,400.6z M202.1,400 c-1,1.5-2.5,2.6-4,3.7c-1.5,1.1-3,2.3-3.7,3.9c-0.8,1.7-0.5,3.9,1,4.9c1.3,0.9,3.1,0.6,4.7,0c4-1.4,7.7-4,9.9-7.7 c2.1-3.7,2.4-8.5,0.2-12.2c1.7,2.3,3.5,4.5,5.4,6.6c1.5,1.7,3,3.4,5.1,4.5c1.9,1,4,1.3,6.1,1.2c4.9-0.2,9.9-2.4,12.9-6.3 s3.6-9.6,1.2-14c-2.5-4.4-7.7-7.1-9.1-11.9c2.3,3.1,5.5,6,9.4,6.5c3.9,0.6,8.3-1.9,8.9-5.7c0.4-2.7-1.1-5.2-2.5-7.5 c2.3,2.4,5.9,3.2,9.1,2.6c3.2-0.6,6.1-2.5,8.3-4.9c1.2-1.3,2.3-2.7,2.7-4.5s-0.1-3.7-1.6-4.7c-1.6-1-3.7-0.6-5.4,0.2 c-1.7,0.8-3.3,2-5.2,2.3c-3.3,0.7-6.6-1.2-9.9-0.9c-2.4,0.2-4.6,1.7-5.9,3.7c-1.2,2.1-1.4,4.7-0.4,6.9c-2.2-2.7-5.7-4.5-9.2-4.2 c-3.5,0.3-6.8,2.8-7.6,6.2c-0.9,3.9,1.5,7.9,4.2,10.8c1.9,2,4.1,3.9,5.3,6.3s1.2,5.9-1,7.6c-1,0.8-2.3,1.1-3.6,1.1 c-2,0-4-0.8-5.5-2.2c-2.7-2.5-3.6-6.6-6.4-9c-2.3-2-5.8-2.4-8.5-1c-4,2-5.5,7.1-4.9,11.6C202.2,396.4,202.9,398.8,202.1,400z M280.2,369.3c-0.9,0.5-1.9,0.9-2.9,0.9c-1-0.1-2-0.6-2.4-1.6c-0.2-0.6-0.2-1.2,0-1.8c0.5-2,2-3.6,2.4-5.6c0.2-1.1,0-2.2-0.4-3.2 c-0.3-0.9-0.8-1.9-1.7-2.3c-0.9-0.5-2-0.3-2.9,0.2c-0.9,0.5-1.5,1.3-2.1,2.1c-2.2,3-3.8,6.4-4.6,10c-0.4,1.8-0.7,3.7-0.4,5.5 c0.3,1.8,1.2,3.6,2.6,4.7c1,0.7,2.2,1.2,3.4,1.4c4.3,0.8,8.7-1,12-3.7s5.8-6.4,8-10.2c-2.4,0.2-4.8-0.5-6.7-1.8 C283.3,366.7,281.9,368.3,280.2,369.3z M277.5,355.8c1.2,3.2,3.9,5.6,7,7c3.1,1.3,6.6,1.6,10,1.4c4.2-0.3,8.4-1.3,12-3.6 s6.4-5.8,7.3-9.9c0.2-1.1,0.3-2.2,0-3.3c-0.4-1-1.3-1.9-2.4-2c-1.1-0.1-2,0.6-2.8,1.3c-1.2,0.9-2.3,1.9-3.4,2.9 c-1.2,1.1-2.3,2.3-3.7,3.2c-3.2,2.2-7.4,2.8-11.1,1.7c-1.6-0.5-3-1.3-4.6-1.9c-1.5-0.6-3.2-1-4.8-0.6S276.8,353.6,277.5,355.8z M221.1,353.1c-0.5,1.3-1,2.5-1.5,3.8c-0.4,1.1-0.9,2.2-1.7,3c-0.8,0.8-2,1.4-3.1,1c-0.8-0.3-1.4-0.9-1.9-1.7 c-1.4-2.2-1.6-4.9-3.2-7c-1.3-1.7-3.4-2.7-5.5-2.9c-2.1-0.2-4.3,0.5-5.8,2c-1.6,1.7-2.1,4.2-2.3,6.5c-0.4,5.2,0.5,10.4-0.5,15.5 c-0.8,4.2-2.8,8-5.3,11.5c-1.2,1.7-2.6,3.4-3.1,5.4c-0.5,2,0.2,4.5,2.1,5.3c2,0.8,4.2-0.4,5.8-1.8c3.5-3.1,5.8-7.3,7.2-11.7 c1.4-4.4,1.9-9.1,2.1-14c0-2.1,0-4.2,0-6.3c1.2,2.5,1,5.8,2.9,7.8c1.5,1.6,4,2,6.2,1.6c5-0.8,9-4.7,11.7-9c1-1.6,1.9-3.3,2.1-5.1 c0.2-1.8-0.3-3.9-1.8-5C224.1,350.9,221.9,351,221.1,353.1z" fill="#F1A298"/></g><g id="change3_1"><path d="M322.6,294c-6.2,7.9-12.1,13.2-23.8,20.8c-11.8,7.6-27.5,8.5-31.8,11.3c-2.1,1.4-4.2,3.6-3.8,6.1 c0.3,1.9,3.1,4.6,4.6,5.8c-5.4,0.9-10.4,1.7-15.6,2.6c-0.3,0-10.7-8.2-17-14.5c-4.3-4.3-5.8-12.4-2.1-17.3c1.1-1.4,2.5-2.5,4.1-3 c3.2-0.9,6.4,0.9,9.2,2.5c7.4,4.2,15.1,8.4,23.5,9.5c8,1,16.3-0.9,23.4-4.6c7.1-3.8,13.2-9.4,18.2-15.7c2.7-3.4,5.1-7,7-10.9 c2.2-0.3,4.6-0.1,5.6,1.8C325,290.3,323.8,292.4,322.6,294z M292.6,232.4c-15.2,2.8-30.8,3.4-46.2,1.6c-13.2-1.5-26.3-4.7-39.5-3.3 c-8.5,0.9-16.9,3.8-23.7,8.9s-12,12.7-13.5,21.1c-2,11,1.9,22,3.8,33c1,5.8,1.3,11.7,1.1,17.6c-0.1,3.5-0.5,7.2,1.3,10.3 c1.9,3.3,5.9,4.9,9.6,4.9s7.4-1.4,10.9-2.9c6-2.7,11.9-5.9,17.3-9.6c9.6-6.6,18.2-14.6,28.2-20.5c14.4-8.4,31.4-11.9,44.7-21.9 c6.8-5.1,12.4-11.8,16.3-19.3c2.3-4.6,4-9.9,2.3-14.7C303.4,232.7,297.8,231.4,292.6,232.4z" fill="#A2272C"/></g><g id="change4_1"><path d="M236.7,462c0.6-1.6,1.5-3.1,1.2-4.8c-0.3-1.8-2-2.9-3.1-4.4c-1.4-1.8-1.9-4.3-1.6-6.6 c0.3-2.3,1.2-4.5,2.3-6.5c1.6-2.1,4-3.7,6.6-4.3c1.6-0.4,3.4-0.4,5-0.8c2.2-0.5,4.3-1.7,6.5-2.2c3.6-0.8,7.5,0.5,10,3.1 c0.3,0.3,0.5,0.6,0.9,0.7c0.7,0.3,1.4-0.1,2-0.4c4-1.8,9.1-1,12.3,2c0.3,0.3,0.6,0.6,1,0.7c0.9,0.3,1.8-0.5,2.6-1.2 c3.7-3.3,9-4.6,13.8-3.3c0.9-5.6,5-10.7,10.3-12.8c0.7-0.3,1.5-0.6,1.8-1.3c0.2-0.4,0.1-0.9,0.1-1.3c-0.2-4.7,2.5-9.4,6.7-11.4 c-1.7-3.6-1.9-7.7-0.4-11.2c0.5-1.2,1.2-2.4,1.2-3.7c-0.1-1.6-1.4-2.9-2.3-4.3c-1.3-2.1-1.7-4.7-1-7.1c0.4-1.3,1-2.5,0.9-3.9 c-0.2-1.9-1.8-3.3-3-4.8c-2.2-2.9-2.6-7.1-1-10.4c0.3-0.5,0.6-1.1,0.7-1.7c0.2-1.3-0.6-2.4-1-3.6c-1-2.7-0.5-5.7,0-8.5 c-3.2,2.5-7.4,3.8-11.4,3.3c-0.3,0-0.6-0.1-0.8,0.1c-0.1,0.1-0.2,0.2-0.3,0.3c-2,2.4-4.8,4.1-7.8,4.8c-3,0.7-6.3,0.4-9.1-0.9 c-2.6,3.4-8,5.5-12.6,4c-0.5-0.2-1-0.3-1.5-0.4c-1.4-0.1-2.6,1-4,1.5c-3.1,1.1-6.5-1.4-9.8-1.1c-1.8,0.2-3.5,1.2-5.2,1.7 c-3.3,1-7.1-0.1-9.5-2.6c-2.6,1.2-5.6,1-8.2,0.1s-5-2.4-7.3-4c-0.4-0.3-0.9-0.6-1.4-0.6c-0.6,0-1.1,0.3-1.7,0.5 c-2,0.9-4.5,0.7-6.3-0.4c-1-0.6-2-1.6-3.2-1.7c-0.8-0.1-1.6,0.2-2.4,0.4c-4.3,1.1-9.2-1-11.6-4.8c-0.8-0.1-1.7-0.2-2.5-0.4 c-0.8,0.6-1.1,1.7-0.8,2.7c0.2,0.7,0.7,1.3,1.1,2c1.5,2.7,0.8,6.2-1.2,8.6c-0.2,0.2-0.4,0.5-0.4,0.8c0,0.4,0.2,0.7,0.4,1.1 c1.1,1.8,1.2,4,0.6,6s-1.6,3.8-2.7,5.6c-0.8,0.9-0.6,2-0.2,2.8c0.4,0.8,1.1,1.5,1.5,2.2c1.2,1.9,1.3,4.4,0.2,6.3 c-0.5,1-1.4,2-1.1,3.1c0.3,1,1.4,1.4,2.3,2c3.4,2,4.7,6.4,4.8,10.3c0,1.3-0.1,2.6,0.6,3.7c0.6,0.9,1.6,1.5,2.5,2.2 c2.9,2.1,4.7,5.7,4.7,9.3c0,0.9-0.1,1.9,0.3,2.7c0.3,0.6,0.9,1,1.5,1.5c2.4,2.1,3.5,5.6,3,8.8c-0.5,3.2-2.4,6.1-4.9,8.1 c1.6,1.9,2.7,4.3,2.9,6.8c0.3,2.4-0.1,5.1,1.3,7c1.3,1.8,4.1,3,3.9,5.3c0,0.2-0.1,0.5-0.2,0.6c-0.3,0.3-0.7,0.3-1.1,0.3 c-3.3-0.2-6.5-2.1-8.3-4.9c-1.8-2.9-2.2-6.5-2.4-9.9c0-0.5-0.1-1-0.4-1.3c-0.7-0.7-1.9-0.1-2.7,0.4c-2.9,1.8-6.9,1.8-9.8,0 c-2.9-1.8-4.7-5.3-4.5-8.7c-3.9-1.8-8-4.5-8.2-8.7c-0.1-1.3,0.3-2.7-0.2-4c-0.6-1.4-2-2.2-3.2-3.2c-2.5-2.1-4-5.4-3.7-8.7 c0-0.7,0.2-1.4-0.2-2c-0.4-0.7-1.3-1-1.9-1.6c-1.3-1.3-0.6-3.6-0.9-5.5c-0.3-2.2-2.1-4-2.5-6.2c-0.6-3.5,2.6-7,1.5-10.3 c-0.4-1.1-1.2-2-1.5-3.2c-0.9-3.1,1.9-6,2.6-9.2c0.7-3.4-1-7.1,0-10.4c0.9-2.9,3.8-5.2,3.7-8.2c0-1.1-0.5-2.2-0.8-3.3 c-1.4-5.1,1.4-10.5,5-14.5c-1.4-2.3-1.1-5.4,0.4-7.6c1.5-2.2,4.1-3.6,6.7-3.9c1.8-0.2,3.7,0.1,5.5-0.4c2.1-0.6,3.9-2.2,6-2.8 c2.3-0.6,4.9,0.1,6.5,1.9c0.4,0.5,0.8,1,1.4,1.3c0.6,0.3,1.3,0.2,1.9,0.2c2.9,0,5.8,1.4,7.8,3.6c0.9,1,1.6,2.2,2.8,2.7 c1.2,0.5,2.6,0.2,3.9,0.2c2.9-0.1,5.8,1.5,7.4,3.9c3.7-2.2,8.9-2,12.8,0.5c0.4,0.3,0.9,0.6,1.4,0.8c1.1,0.4,2.3-0.1,3.5-0.4 c3.1-0.7,6.5,0.1,9,2.2c0.7,0.6,1.4,1.3,2.2,1.2c0.6,0,1.1-0.4,1.6-0.6c2.3-1.3,5.2-1.6,7.7-0.7c1.3,0.4,2.8,1.2,4,0.6 c0.6-0.3,1.1-0.8,1.6-1.2c1.2-1,2.7-1.6,4.2-1.6c1.3,0,2.7,0.3,3.9-0.1c1.5-0.5,2.4-2,3.5-3.1c1.4-1.4,3.2-2.2,5.1-2.4 c2.4-0.3,4.9,0.4,7-0.7c1.5-0.8,2.4-2.5,3.6-3.8c2.1-2.3,5.5-3.5,8.6-3c0.4-3.5,2.9-6.3,5.8-7.7c1.7-0.8,5.4-0.7,6.1-2.4 c0.6-1.7,0.1-4.4,4.2-7.1c2.7-1.7,6.1-2.9,9-1.5c2,0.9,1.3,1.5,3.5,2.3c1.1,0.4,2.2,0.4,3.3,0.7c2.1,0.7,3.6,2.6,4.3,4.7 s0.6,4.4,0.4,6.5c-0.2,1.5-0.5,3.1-0.3,4.6c0.1,1,0.4,2,0.5,3c0.8,4.5-0.8,9.3-4,12.6c2.5,3.1,3,7.8,1.3,11.5c-0.9,2-2.4,4-1.8,6 c0.4,1.2,1.4,2.2,2,3.3c1.3,2.4,0.6,5.3,0.8,8c0,0.4,0.1,0.9,0.3,1.3c0.2,0.5,0.7,1,1.1,1.4c2.8,3.2,3.2,7.9,2.5,12.1 c-0.2,1.3-0.5,2.6-0.2,3.9c0.2,1,0.8,1.9,1.3,2.8c2.4,4.5,2.5,10.2,0.2,14.8c3.6,3.7,3.9,10,0.7,14c-0.3,0.4-0.6,0.8-0.8,1.2 c-0.2,0.5-0.2,1-0.2,1.5c-0.2,4.6-3.1,9-7.2,11c0.9,1.9,0.5,4.3-0.7,6.1c-1.2,1.8-3,3.1-4.9,4.1c-0.4,0.2-0.9,0.5-1.2,0.8 c-0.4,0.4-0.6,0.9-0.8,1.4c-2.2,4.7-6.8,8.2-12,9c-1.3,0.2-2.7,0.3-3.8,1c-0.7,0.5-1.3,1.3-1.8,2c-2.9,3.6-7.8,5.2-12.5,5.4 c-2,0.7-3.5,2.2-5.3,3.2c-3.1,1.7-7,1.9-10.2,0.4c-0.4-0.2-0.8-0.4-1.2-0.4c-0.4-0.1-0.8,0-1.2,0.1c-3.8,0.6-7.7,0.7-11.5,0.3 c1.3,3.6,0.4,7.8-2.2,10.6c-0.4,0.4-0.7,0.8-0.9,1.2c-0.4,0.9,0.1,1.9,0.3,2.8c0.6,2.1,0.2,4.5-1,6.3c-1.3,2-3.4,3.3-5.2,4.7 c-1.9,1.4-3.7,3.2-4.1,5.6c-0.2,1-0.1,2.1-0.4,3c-0.3,1-1.4,1.8-2.3,1.4c-1-0.4-1.1-1.8-1.2-2.9c-0.2-1.7-1.1-3.4-2.5-4.5 c-1.5-1.2-3.4-1.8-5-2.8c-2.4-1.5-4.2-4-4.9-6.8s-0.1-5.8,1.4-8.2C237,471,235.3,466,236.7,462z M231.6,297.8 c-0.2-1.2-0.2-2.2-0.2-3.3c0-0.6,0.1-1.1,0.2-1.8c0.5-3.7,2.9-8,2.9-8.4c0,0-0.8-1.3-1.2-1.7c-2.1,3.2-3.6,6.6-4.1,10.4 c-1.4-1.9-2.3-3.6-4.6-6.4c0,0-1.4,1.1-1.8,1.3c2,2.6,3.5,5.5,4.6,8.5c0.6,1.6,1,3.3,1.4,5c-3.4,0.5-5.6,0.8-8,1.4 c-1.7,0.4-3.5,0.9-6,1.6c-10.8,3.1-10.2,9.8-9.6,11.8c0.7,2.7,3.7,4.5,6.4,4.2c2.5-0.2,4.7-2,5.8-4.2c0.1-0.2,0.2-0.5,0.3-0.8 c0.8-2,0.8-4.2,1.7-6.2c0.8-1.7,2.3-3.1,4-3.9c1.7-0.8,3.6-1.1,5.5-1c1.7,0.1,4.2,2.1,5.5,3.1c0.8-0.7,1.7-1.2,2.8-1.5 c0.3-0.1,0.7-0.2,1-0.2C237.3,304.7,232,299.8,231.6,297.8z M316.2,278.4c1.6-3.2,3.3-6.5,3.6-10.1c0.1-0.9,0.1-1.9-0.3-2.7 c-0.4-0.8-1.1-1.6-2-1.6c-1.2-0.1-2.2,0.9-2.6,2s-0.5,2.3-0.7,3.5c-0.5,2.3-1.8,4.3-2.5,6.5c-0.3,0.9-0.5,1.8-0.3,2.7 s0.8,1.8,1.6,2.1C313.9,281,315.1,280.6,316.2,278.4z M316.4,256.7c-1,0.9-1.2,2.5-0.4,3.6s2.4,1.3,3.5,0.6 c1.1-0.7,1.5-2.3,0.8-3.5C319.8,256.3,317.9,255.4,316.4,256.7z M194.1,245.4c2.6-1.1,5.1-2.2,7.7-3.3c1.1-0.5,2.4-1.1,2.6-2.3 c0.2-1.1-0.6-2.1-1.6-2.6s-2.1-0.4-3.2-0.3c-3.6,0.4-7.3,1.7-9.8,4.4c-0.6,0.6-1.1,1.4-1.3,2.2c-0.2,0.8,0,1.8,0.6,2.4 c0.6,0.6,1.5,0.7,2.3,0.5C192.3,246.3,193,245.9,194.1,245.4z M207.9,239.5c1.4,1.1,4,0.1,4.3-1.7s-1.5-3.6-3.3-3.5 S204.9,237.1,207.9,239.5z" fill="#F8C5BE"/></g><g id="change5_1"><path d="M332.5,329.5c-3.3,3.3-5.7,2.6-5.9,3.8c-0.8,4.4-1.8,8.7-8.7,13.4c-0.6,0.4-5,2.4-5.9,5.5 c-1.1,3.6,0.9,7.6,0.6,8c-1.7,2.2-2.9,6.3-2.3,9.6c0.4,2.2,1.5,3.5,1.7,4.2c-0.3-0.1-3.8-3.4-3.7-7.6c0.1-3.6,1.2-4.7,1.7-5.8 c0.4-0.9-0.5-2.7-1-3.8c-0.9-2.3-0.5-5.6,0.2-8.6c1.4-0.7,3.1-2.6,3.7-4.9c8.9-2.6,10.7-7.5,12.6-12.2c7-3.2,9.6-11.4,10-12.2 C336.3,322.6,334.7,327.3,332.5,329.5z M266.9,473.3c2.6-2.7,3.4-6.6,1.9-10.2c-2.4-1.1-5.5-2.5-6.9-4.8 c-9.7,1.2-17.4-8.6-18.7-9.6c-0.3,2.3,0.9,5.9,2.9,8.2c2,2.2,4.8,3.7,7.7,4c2.2,0.2,4.9-0.2,7,4.1c1.8,3.6,0.5,7.2,0.8,7.6 c2,2.4,2.1,5.5,1.6,7.9c-0.5,2.5-1.7,4.4-2.4,7.2c2-1.4,3.4-2.3,4.4-3.9c1.2-1.8,1.6-4.2,1-6.3c-0.2-0.9-0.7-2-0.3-2.9 C266.1,474,266.5,473.7,266.9,473.3z M191.9,361.6c0-0.4,0.2-0.6,0.4-0.8c2-2.4,2.3-6.1,0.8-8.8c-0.4-0.7-0.9-1.3-1.1-2 c-0.3-0.9,0.6-1.8,0.8-2.3c-0.3,0.1-8.5-2.3-10.4-7.2c-3.5-0.6-7.1-4.4-7.6-5.1c0,1.4,0.9,3.7,1.7,4.5c1,1,2.7,2.4,5.1,3 c0.1,1.8,1.9,4.9,3.2,6.1c0.7,0.7,1.6,1.2,2.3,1.9c2.9,2.7,2.4,5.8,0.6,10.1c-0.4,0.9,2.5,2.2,3.3,5.8c0.5,2.2,0.2,4.1-0.3,6 c0.9-1.3,1.5-2.7,2-4.3c0.6-2,0.7-4.3-0.5-6C192.1,362.4,191.9,362,191.9,361.6z M214.4,317.5c-2.6,0.8-5.6,0.2-7.6-1.7 c-0.8-0.8-1.4-1.8-1.7-2.9c-0.2,1.4-0.1,2.6,0.1,3.2c0.7,2.7,3.7,4.5,6.4,4.2c2.5-0.2,4.7-2,5.8-4.2c0.1-0.2,0.2-0.3,0.2-0.5 C216.7,316.5,215.6,317.1,214.4,317.5z M223.6,287.3c0,0-0.6,0.4-0.8,0.6c0.2,0.2,3.5,5.5,4.6,8.5c0.6,1.6,1,3.3,1.4,5 c0.4-0.1,0.6-0.1,0.9-0.1C229.2,296.2,223.6,287.3,223.6,287.3z M233.2,282.6c-0.3,0.3-1.7,2.5-2.7,5c-0.9,2.3-1.4,4.9-1.4,5.4 c0,0,0.4,0.6,0.6,0.8c0.3-2.6,1.8-7.5,3.8-10.8C233.5,282.9,233.3,282.7,233.2,282.6z M197.2,431c-9.3-12.1-14.9-25.4-17.3-40.4 c-1.5-7.7-2.3-15.2-1.5-23.4c0.4-4,0.9-7.7,2.1-12c0.4-1.8,1.2-3.6,1.5-5.4c0-0.2-0.1-0.4-0.3-0.6c-0.4-0.4-1.2-0.1-1.4,0.5 c-4.4,12.8-5.1,26.8-2.4,40c2.3,15.8,8.7,30.9,18.7,43.3c0.8,0.9,1.5,2,2.4,2.8c0.5,0.3,1.2-0.2,1.2-0.8 C199.9,433.9,197.4,431.5,197.2,431z M331,390.3c-1.3-14.8-5.5-25.3-5.5-39.8c0.1-1.8,0.6-3.7,1.2-5.9c0.1-0.3,0-0.7-0.3-0.9 c-1.8-1.3-2.2,4.2-2.5,5.2c-0.9,16,4.7,28.3,5.4,43.5c0.5,16.4-3.6,33.8-15.8,45c-10.6,9.2-25.3,13.5-39.9,11 c-4.7-0.8-12-2.8-16.6-5.1c-2-1-3.8-2.1-5.6-3.5c-0.2-0.1-0.4-0.1-0.7-0.1c-0.7,0.2-0.9,1.2-0.2,1.6c9.4,6.8,21.4,9.5,32.9,9.5 c11.2-0.2,22.2-4.6,30.8-11.8C327.8,427,332,407.6,331,390.3z M329.7,305.5c-0.4-0.2-1-0.1-1.2,0.3c-1.3,1.9-2.7,3.8-4.1,5.7 c-4.1,5.6-9.6,11.8-15.5,16.6c-26.5,18.4-66.4,25.7-97.5,13.3c-5.8-2.4-13.2-7-18.8-11.4c-1.4-1-3.6-3-5.3-4.8 c-0.8-0.4-1.7,0.8-1,1.4c16.8,17.1,41.6,24.4,65.2,22.4c20.8-1.4,41.6-7.5,58.7-19.8c7.3-6,13.3-13.3,18.7-21 C329.4,307.4,330.8,306.3,329.7,305.5z" fill="#F08486"/></g></g></svg>