<?xml version="1.0" encoding="UTF-8"?><!-- Generator: Adobe Illustrator 23.0.1, SVG Export Plug-In . SVG Version: 6.00 Build 0)  --><svg xmlns="http://www.w3.org/2000/svg" enable-background="new 0 0 276 52" id="Layer_1" version="1.1" viewBox="0 0 276 52" x="0px" xml:space="preserve" y="0px">
<g id="change1_1"><path d="m10.2 9v8.7l11.2 8.7-11.2 8.6v8.7l22.4-17.4-22.4-17.3zm21.4 0v8.7l11.2 8.7-11.2 8.6v8.7l22.4-17.4-22.4-17.3zm21.3 0v8.7l11.2 8.7-11.2 8.6v8.7l22.4-17.4-22.4-17.3zm21.5 0v8.7l11.2 8.7-11.2 8.6v8.7l22.4-17.4-22.4-17.3zm21.4 0v8.7l11.2 8.7-11.2 8.6v8.7l22.4-17.4-22.4-17.3zm21.5 0v8.7l11.2 8.7-11.2 8.6v8.7l22.4-17.4-22.4-17.3zm21.5 0v8.7l11.2 8.7-11.2 8.6v8.7l22.4-17.4-22.4-17.3zm21.4 0v8.7l11.2 8.7-11.2 8.6v8.7l22.4-17.4-22.4-17.3zm21.5 0v8.7l11.2 8.7-11.2 8.6v8.7l22.4-17.4-22.4-17.3zm21.5 0v8.7l11.2 8.7-11.2 8.6v8.7l22.4-17.4-22.4-17.3zm21.4 0v8.7l11.2 8.7-11.2 8.6v8.7l22.4-17.4-22.4-17.3zm21.5 0v8.7l11.2 8.7-11.2 8.6v8.7l22.4-17.4-22.4-17.3z" fill="#fff"/></g>
</svg>